HIERARCHY
ROOT hip
{
	OFFSET 0.000000 0.000000 0.000000 
	CHANNELS 6 Xposition Yposition Zposition Xrotation Zrotation Yrotation
	JOINT abdomen
	{
		OFFSET 0.000000 3.402643 0.000000 
		CHANNELS 3 Xrotation Zrotation Yrotation
		JOINT chest
		{
			OFFSET 0.000000 8.438565 -0.680529 
			CHANNELS 3 Xrotation Zrotation Yrotation
			JOINT neck
			{
				OFFSET 0.000000 10.207942 -0.272212 
				CHANNELS 3 Xrotation Zrotation Yrotation
				JOINT head
				{
					OFFSET 0.000000 3.130431 0.000000 
					CHANNELS 3 Xrotation Zrotation Yrotation
					End Site
					{
						OFFSET 0.000000 3.130435 0.000000 
					}
				}
			}
			JOINT lCollar
			{
				OFFSET 3.470700 6.669187 -0.816635 
				CHANNELS 3 Yrotation Zrotation Xrotation
				JOINT lShldr
				{
					OFFSET 3.198488 0.000000 0.000000 
					CHANNELS 3 Zrotation Yrotation Xrotation
					JOINT lForeArm
					{
						OFFSET 10.139888 0.000000 0.000000 
						CHANNELS 3 Yrotation Zrotation Xrotation
						JOINT lHand
						{
							OFFSET 8.370511 0.000000 0.000000 
							CHANNELS 3 Zrotation Yrotation Xrotation
							End Site
							{
								OFFSET 4.083176 0.000000 0.000000 
							}
						}
					}
				}
			}
			JOINT rCollar
			{
				OFFSET -3.470700 6.669187 -0.816635 
				CHANNELS 3 Yrotation Zrotation Xrotation
				JOINT rShldr
				{
					OFFSET -3.198488 0.000000 0.000000 
					CHANNELS 3 Zrotation Yrotation Xrotation
					JOINT rForeArm
					{
						OFFSET -10.139888 0.000000 0.000000 
						CHANNELS 3 Yrotation Zrotation Xrotation
						JOINT rHand
						{
							OFFSET -8.370511 0.000000 0.000000 
							CHANNELS 3 Zrotation Yrotation Xrotation
							End Site
							{
								OFFSET -4.083176 0.000000 0.000000 
							}
						}
					}
				}
			}
		}
	}
	JOINT lThigh
	{
		OFFSET 5.308129 -1.633274 1.361059 
		CHANNELS 3 Xrotation Zrotation Yrotation
		JOINT lShin
		{
			OFFSET -2.041588 -20.007561 0.000000 
			CHANNELS 3 Xrotation Zrotation Yrotation
			JOINT lFoot
			{
				OFFSET 0.000000 -19.190928 -1.224953 
				CHANNELS 3 Xrotation Yrotation Zrotation
				End Site
				{
					OFFSET 0.000000 -2.449906 4.627600 
				}
			}
		}
	}
	JOINT rThigh
	{
		OFFSET -5.308129 -1.633274 1.361059 
		CHANNELS 3 Xrotation Zrotation Yrotation
		JOINT rShin
		{
			OFFSET 2.041588 -20.007561 0.000000 
			CHANNELS 3 Xrotation Zrotation Yrotation
			JOINT rFoot
			{
				OFFSET 0.000000 -19.190928 -1.224953 
				CHANNELS 3 Xrotation Yrotation Zrotation
				End Site
				{
					OFFSET 0.000000 -2.449906 4.627600 
				}
			}
		}
	}
}
MOTION
Frames: 12
Frame Time: 0.033333
3.397366 54.025627 3.397366 -50.507915 0.099369 -0.130345 45.573421 7.300663 -30.445135 9.747052 -0.246340 -10.624949 -8.544922 -0.001505 -0.009645 3.029129 20.790886 27.896664 2.000000 -2.000000 0.000000 73.204781 -45.803719 -62.297131 -23.036083 -0.766513 8.374681 -8.976103 -40.011955 -139.343109 -2.000000 2.000000 0.000000 35.440048 121.540649 10.333416 42.288288 0.617343 8.507683 18.126461 -27.206596 -98.411705 8.452435 9.546484 0.971421 62.583683 0.563601 -3.898868 -20.794933 -3.294957 -5.616643 57.817764 -11.220186 -2.976992 36.222862 0.906567 2.774788 -43.358360 0.107715 8.897619 
3.382339 54.003193 3.382339 -50.507915 0.099369 -0.130345 45.573421 7.300663 -30.445135 9.747052 -0.246340 -10.624949 -8.544922 -0.001505 -0.009645 3.581604 20.515524 28.085220 2.000000 -2.000000 0.000000 73.479134 -45.694199 -62.557171 -26.771004 -0.731983 8.395494 -9.728454 -36.218731 -139.787827 -2.000000 2.000000 0.000000 37.720650 116.610016 12.198828 49.773197 0.575266 8.569425 18.993454 -29.139547 -99.646194 8.138530 9.583589 0.943093 62.788166 0.573229 -3.911902 -20.704433 -3.336197 -5.636911 57.253441 -11.230112 -2.910318 36.954575 0.871386 2.829624 -43.557240 0.107388 8.856703 
3.452460 53.672523 3.452460 -50.507915 0.099369 -0.130345 45.573421 7.300663 -30.445135 5.571894 -0.305915 -14.473336 -8.544922 -0.001505 -0.009645 13.269801 17.239470 33.564808 2.000000 -2.000000 0.000000 56.811268 -36.783566 -50.234943 -57.133297 -0.549779 8.647420 -14.950853 -20.432890 -144.305847 -2.000000 2.000000 0.000000 28.591991 110.394234 1.842072 61.121445 0.526543 8.689643 20.428633 -31.983583 -101.604851 6.940740 9.645658 0.766728 63.285583 0.602467 -3.916580 -20.048754 -3.352043 -5.700715 54.915398 -11.277968 -2.699462 39.873886 0.724532 2.965327 -44.193546 0.199214 8.820066 
3.136923 53.106586 3.136922 -50.507915 0.099369 -0.130345 39.794029 6.425432 -34.035801 5.311459 -0.299427 -14.709023 -8.544922 -0.001505 -0.009645 19.184111 13.935533 36.939751 2.000000 -2.000000 0.000000 38.632450 -30.788679 -35.275959 -77.354271 -0.513609 8.852212 -13.853343 -11.772658 -146.487976 -2.000000 2.000000 0.000000 10.011500 114.334229 -14.549356 57.737358 0.542791 8.656022 20.009344 -31.194963 -101.043999 6.655007 10.500292 0.739911 63.362858 0.612159 -3.933540 -19.907066 -3.919961 -6.365802 54.175858 -10.536760 -2.448320 40.957035 0.682012 3.023475 -44.564705 0.091720 8.019971 
1.699466 53.281853 1.699466 -50.507915 0.099369 -0.130345 40.494110 8.241265 -35.348106 6.249730 -0.235817 -13.837261 -8.544922 -0.001505 -0.009645 15.785296 14.390896 37.447178 2.000000 -2.000000 0.000000 39.751850 -26.509703 -38.506943 -77.641747 -0.511796 8.854430 -14.930831 -13.242852 -146.456604 -2.000000 2.000000 0.000000 17.275679 117.854820 -7.232549 54.709114 0.553732 8.625009 19.571703 -30.330603 -100.450874 6.786036 12.478203 0.958977 62.884464 0.601746 -3.928389 -19.700418 -5.425605 -7.678601 53.705322 -8.798445 -1.714395 41.601254 0.643201 3.050957 -44.777458 -0.512216 6.226747 
1.709491 53.437122 1.709492 -50.507915 0.099369 -0.130345 41.787922 8.115345 -34.090515 7.155786 -0.200432 -13.003167 -8.544922 -0.001505 -0.009645 12.633318 16.181459 35.168259 2.000000 -2.000000 0.000000 44.851749 -31.182730 -42.029156 -67.461479 -0.517575 8.747726 -13.410270 -18.075165 -144.654694 -2.000000 2.000000 0.000000 22.403212 118.613243 -2.301764 51.497658 0.567566 8.590460 19.184439 -29.523844 -99.910675 7.222136 12.551189 1.005820 62.758106 0.583365 -3.923959 -20.015131 -5.465638 -7.738671 54.573322 -8.709970 -1.769833 40.605282 0.685647 3.017018 -44.624462 -0.536187 6.164061 
1.889800 53.637524 1.889800 -50.507915 0.099369 -0.130345 43.007507 7.886312 -32.889107 7.999166 -0.192724 -12.225703 -8.544922 -0.001505 -0.009645 9.601733 17.780376 32.876892 2.000000 -2.000000 0.000000 51.001041 -35.791904 -46.295017 -56.392223 -0.556629 8.640281 -11.990115 -23.453087 -142.977722 -2.000000 2.000000 0.000000 26.925972 119.384094 2.043858 48.484344 0.581305 8.566210 18.828390 -28.769106 -99.416702 7.626468 12.254094 1.040978 62.573513 0.572671 -3.902794 -20.189489 -5.246181 -7.521420 55.337288 -8.974557 -1.917175 39.580719 0.750712 2.959735 -44.364994 -0.464238 6.447493 
2.040055 53.832794 2.040056 -50.507915 0.099369 -0.130345 44.106323 7.656747 -31.826643 8.748816 -0.211812 -11.533420 -8.544922 -0.001505 -0.009645 6.829589 19.132822 30.780807 2.000000 -2.000000 0.000000 58.140408 -39.936386 -51.430954 -44.790844 -0.612159 8.532350 -10.766369 -29.162428 -141.465027 -2.000000 2.000000 0.000000 30.715006 120.226204 5.715904 45.814507 0.592727 8.542651 18.509563 -28.095337 -98.963989 8.031639 11.935757 1.063105 62.339096 0.554155 -3.912890 -20.331667 -5.003318 -7.319550 56.106297 -9.208074 -2.071319 38.507164 0.793446 2.901346 -44.045937 -0.371514 6.722578 
2.971641 54.003193 2.971640 -50.507915 0.099369 -0.130345 45.218597 7.396663 -30.765743 9.507910 -0.230744 -10.841751 -8.544922 -0.001505 -0.009645 3.960316 20.408979 28.598570 2.000000 -2.000000 0.000000 68.978226 -44.518604 -59.338367 -28.758156 -0.718635 8.412395 -9.559271 -37.125553 -139.665237 -2.000000 2.000000 0.000000 34.313858 121.217361 9.223226 43.138786 0.609000 8.512577 18.214272 -27.415529 -98.543747 8.373733 10.395213 0.989181 62.447147 0.554014 -3.898427 -20.673477 -3.899988 -6.221177 57.339699 -10.517445 -2.660648 36.838402 0.877424 2.796576 -43.552341 -0.058341 8.151598 
3.412393 54.048199 3.412393 -50.507915 0.099369 -0.130345 45.573421 7.300663 -30.445135 9.747052 -0.246340 -10.624949 -8.544922 -0.001505 -0.009645 3.029129 20.790886 27.896664 2.000000 -2.000000 0.000000 73.177353 -45.858574 -62.495911 -23.036083 -0.766513 8.374681 -9.202765 -39.976391 -139.056030 -2.000000 2.000000 0.000000 35.440048 121.540649 10.333416 42.288288 0.617343 8.507683 18.126461 -27.206596 -98.411705 8.452435 9.546484 0.971421 62.583683 0.563600 -3.898868 -20.794933 -3.294956 -5.616644 57.817764 -11.220185 -2.976992 36.222862 0.906568 2.774788 -43.358360 0.107717 8.897621 
3.412393 54.048199 3.412393 -50.507915 0.099369 -0.130345 45.573421 7.300663 -30.445135 9.747052 -0.246340 -10.624949 -8.544922 -0.001505 -0.009645 3.029129 20.790886 27.896664 2.000000 -2.000000 0.000000 73.177353 -45.858574 -62.495911 -23.036083 -0.766513 8.374681 -9.202765 -39.976391 -139.056030 -2.000000 2.000000 0.000000 35.440048 121.540649 10.333416 42.288288 0.617343 8.507683 18.126461 -27.206596 -98.411705 8.452435 9.546484 0.971421 62.583683 0.563600 -3.898868 -20.794933 -3.294956 -5.616644 57.817764 -11.220185 -2.976992 36.222862 0.906568 2.774788 -43.358360 0.107717 8.897621 
3.412393 54.048199 3.412393 -50.507915 0.099369 -0.130345 45.573421 7.300663 -30.445135 9.747052 -0.246340 -10.624949 -8.544922 -0.001505 -0.009645 3.029129 20.790886 27.896664 2.000000 -2.000000 0.000000 73.177353 -45.858574 -62.495911 -23.036083 -0.766513 8.374681 -9.202765 -39.976391 -139.056030 -2.000000 2.000000 0.000000 35.440048 121.540649 10.333416 42.288288 0.617343 8.507683 18.126461 -27.206596 -98.411705 8.452435 9.546484 0.971421 62.583683 0.563600 -3.898868 -20.794933 -3.294956 -5.616644 57.817764 -11.220185 -2.976992 36.222862 0.906568 2.774788 -43.358360 0.107717 8.897621 
